<svg width="213" height="60" viewBox="0 0 213 60" fill="none" xmlns="http://www.w3.org/2000/svg">
<rect width="91" height="47" rx="14" fill="#FF630C"/>
<path d="M11.7063 33V10.4545H21.0195C22.7075 10.4545 24.1643 10.7591 25.3899 11.3683C26.6229 11.9701 27.5733 12.8361 28.2411 13.9663C28.909 15.0891 29.2429 16.4212 29.2429 17.9624C29.2429 19.5256 28.9016 20.8539 28.2191 21.9474C27.5366 23.0336 26.5678 23.8629 25.3129 24.4354C24.0579 25.0005 22.5717 25.283 20.8544 25.283H14.9648V20.9897H19.8416C20.6636 20.9897 21.3498 20.8833 21.9002 20.6705C22.458 20.4503 22.88 20.12 23.1662 19.6797C23.4524 19.232 23.5955 18.6596 23.5955 17.9624C23.5955 17.2652 23.4524 16.689 23.1662 16.234C22.88 15.7717 22.458 15.4267 21.9002 15.1992C21.3424 14.9644 20.6563 14.8469 19.8416 14.8469H17.1555V33H11.7063ZM24.3991 22.696L30.0135 33H24.0689L18.5646 22.696H24.3991ZM39.7918 33.3192C38.0158 33.3192 36.4893 32.956 35.2123 32.2294C33.9426 31.4955 32.9629 30.4754 32.273 29.169C31.5905 27.8554 31.2492 26.3325 31.2492 24.6005C31.2492 22.8612 31.5905 21.3383 32.273 20.032C32.9629 18.7183 33.9426 17.6982 35.2123 16.9716C36.4893 16.2377 38.0158 15.8707 39.7918 15.8707C41.5679 15.8707 43.0907 16.2377 44.3604 16.9716C45.6373 17.6982 46.6171 18.7183 47.2996 20.032C47.9895 21.3383 48.3344 22.8612 48.3344 24.6005C48.3344 26.3325 47.9895 27.8554 47.2996 29.169C46.6171 30.4754 45.6373 31.4955 44.3604 32.2294C43.0907 32.956 41.5679 33.3192 39.7918 33.3192ZM39.8248 29.2571C40.4707 29.2571 41.0174 29.0589 41.4651 28.6626C41.9128 28.2663 42.2541 27.7159 42.4889 27.0114C42.7311 26.3068 42.8522 25.4922 42.8522 24.5675C42.8522 23.6281 42.7311 22.8061 42.4889 22.1016C42.2541 21.397 41.9128 20.8466 41.4651 20.4503C41.0174 20.054 40.4707 19.8558 39.8248 19.8558C39.157 19.8558 38.5919 20.054 38.1295 20.4503C37.6745 20.8466 37.3259 21.397 37.0837 22.1016C36.8489 22.8061 36.7314 23.6281 36.7314 24.5675C36.7314 25.4922 36.8489 26.3068 37.0837 27.0114C37.3259 27.7159 37.6745 28.2663 38.1295 28.6626C38.5919 29.0589 39.157 29.2571 39.8248 29.2571ZM65.8545 21.2539L60.9117 21.386C60.8603 21.0337 60.7209 20.7218 60.4933 20.4503C60.2658 20.1714 59.9686 19.9549 59.6017 19.8008C59.242 19.6393 58.8237 19.5586 58.3467 19.5586C57.7229 19.5586 57.1908 19.6834 56.7504 19.9329C56.3174 20.1824 56.1046 20.52 56.1119 20.9457C56.1046 21.2759 56.2367 21.5621 56.5083 21.8043C56.7871 22.0465 57.2825 22.241 57.9944 22.3878L61.2529 23.0043C62.9409 23.3272 64.1959 23.8629 65.0178 24.6115C65.8472 25.3601 66.2655 26.3509 66.2728 27.5838C66.2655 28.7434 65.9205 29.7525 65.238 30.6112C64.5628 31.4698 63.6381 32.1377 62.4639 32.6147C61.2896 33.0844 59.9466 33.3192 58.4347 33.3192C56.0202 33.3192 54.1157 32.8239 52.7213 31.8331C51.3343 30.835 50.5416 29.4993 50.3435 27.826L55.6606 27.6939C55.778 28.3104 56.0826 28.7801 56.5743 29.103C57.066 29.4259 57.6935 29.5874 58.4568 29.5874C59.1466 29.5874 59.7081 29.4589 60.1411 29.2021C60.5741 28.9452 60.7942 28.6039 60.8016 28.1783C60.7942 27.7966 60.6254 27.4921 60.2952 27.2646C59.9649 27.0297 59.4475 26.8462 58.743 26.7141L55.7927 26.1527C54.0974 25.8445 52.8351 25.2757 52.0058 24.4464C51.1765 23.6097 50.7655 22.5456 50.7728 21.2539C50.7655 20.1237 51.0664 19.1586 51.6755 18.3587C52.2847 17.5514 53.1507 16.9349 54.2735 16.5092C55.3964 16.0836 56.7211 15.8707 58.2476 15.8707C60.5374 15.8707 62.3428 16.3514 63.6638 17.3129C64.9848 18.2669 65.7151 19.5806 65.8545 21.2539ZM76.8272 33.3192C75.0585 33.3192 73.532 32.9706 72.2477 32.2734C70.9707 31.5689 69.9873 30.5671 69.2974 29.2681C68.6149 27.9618 68.2736 26.4096 68.2736 24.6115C68.2736 22.8648 68.6185 21.3383 69.3084 20.032C69.9983 18.7183 70.9707 17.6982 72.2257 16.9716C73.4806 16.2377 74.9595 15.8707 76.6621 15.8707C77.8657 15.8707 78.9666 16.0579 79.9647 16.4322C80.9628 16.8065 81.8251 17.3606 82.5517 18.0945C83.2782 18.8284 83.8433 19.7347 84.247 20.8136C84.6506 21.8851 84.8525 23.1143 84.8525 24.5014V25.8445H70.1561V22.718H79.8436C79.8362 22.1456 79.7005 21.6355 79.4363 21.1879C79.1721 20.7402 78.8088 20.3916 78.3464 20.142C77.8914 19.8852 77.3667 19.7567 76.7722 19.7567C76.1704 19.7567 75.631 19.8925 75.1539 20.1641C74.6769 20.4283 74.2989 20.7915 74.0201 21.2539C73.7412 21.7089 73.5944 22.2263 73.5797 22.8061V25.9876C73.5797 26.6774 73.7155 27.2829 73.987 27.804C74.2586 28.3177 74.6439 28.7177 75.1429 29.0039C75.642 29.2901 76.2364 29.4332 76.9263 29.4332C77.4034 29.4332 77.8364 29.3672 78.2253 29.2351C78.6143 29.103 78.9482 28.9085 79.2271 28.6516C79.506 28.3948 79.7151 28.0792 79.8546 27.7049L84.7974 27.848C84.5919 28.9562 84.1406 29.9213 83.4434 30.7433C82.7535 31.5579 81.8471 32.1927 80.7243 32.6477C79.6014 33.0954 78.3024 33.3192 76.8272 33.3192Z" fill="#FCFCFC"/>
<path d="M94.262 33V10.4545H109.652V14.88H99.7112V19.5036H108.672V23.94H99.7112V33H94.262ZM117.779 10.4545V33H112.396V10.4545H117.779ZM129.098 33.3192C127.322 33.3192 125.796 32.956 124.519 32.2294C123.249 31.4955 122.27 30.4754 121.58 29.169C120.897 27.8554 120.556 26.3325 120.556 24.6005C120.556 22.8612 120.897 21.3383 121.58 20.032C122.27 18.7183 123.249 17.6982 124.519 16.9716C125.796 16.2377 127.322 15.8707 129.098 15.8707C130.874 15.8707 132.397 16.2377 133.667 16.9716C134.944 17.6982 135.924 18.7183 136.606 20.032C137.296 21.3383 137.641 22.8612 137.641 24.6005C137.641 26.3325 137.296 27.8554 136.606 29.169C135.924 30.4754 134.944 31.4955 133.667 32.2294C132.397 32.956 130.874 33.3192 129.098 33.3192ZM129.131 29.2571C129.777 29.2571 130.324 29.0589 130.772 28.6626C131.219 28.2663 131.561 27.7159 131.796 27.0114C132.038 26.3068 132.159 25.4922 132.159 24.5675C132.159 23.6281 132.038 22.8061 131.796 22.1016C131.561 21.397 131.219 20.8466 130.772 20.4503C130.324 20.054 129.777 19.8558 129.131 19.8558C128.464 19.8558 127.899 20.054 127.436 20.4503C126.981 20.8466 126.633 21.397 126.39 22.1016C126.156 22.8061 126.038 23.6281 126.038 24.5675C126.038 25.4922 126.156 26.3068 126.39 27.0114C126.633 27.7159 126.981 28.2663 127.436 28.6626C127.899 29.0589 128.464 29.2571 129.131 29.2571ZM140.399 33V16.0909H145.628V19.1733H145.804C146.112 18.0578 146.615 17.2285 147.312 16.6854C148.009 16.1349 148.82 15.8597 149.745 15.8597C149.994 15.8597 150.251 15.8781 150.516 15.9148C150.78 15.9441 151.026 15.9918 151.253 16.0579V20.7365C150.996 20.6484 150.659 20.5787 150.24 20.5273C149.829 20.476 149.462 20.4503 149.139 20.4503C148.501 20.4503 147.925 20.5934 147.411 20.8796C146.905 21.1585 146.505 21.5511 146.211 22.0575C145.925 22.5566 145.782 23.1437 145.782 23.8189V33H140.399ZM153.447 33V16.0909H158.83V33H153.447ZM156.144 14.1204C155.388 14.1204 154.738 13.8709 154.195 13.3718C153.652 12.8654 153.381 12.2563 153.381 11.5444C153.381 10.8398 153.652 10.238 154.195 9.73899C154.738 9.2326 155.388 8.9794 156.144 8.9794C156.907 8.9794 157.556 9.2326 158.092 9.73899C158.635 10.238 158.907 10.8398 158.907 11.5444C158.907 12.2563 158.635 12.8654 158.092 13.3718C157.556 13.8709 156.907 14.1204 156.144 14.1204ZM177.019 21.2539L172.076 21.386C172.024 21.0337 171.885 20.7218 171.657 20.4503C171.43 20.1714 171.133 19.9549 170.766 19.8008C170.406 19.6393 169.988 19.5586 169.511 19.5586C168.887 19.5586 168.355 19.6834 167.915 19.9329C167.482 20.1824 167.269 20.52 167.276 20.9457C167.269 21.2759 167.401 21.5621 167.672 21.8043C167.951 22.0465 168.447 22.241 169.158 22.3878L172.417 23.0043C174.105 23.3272 175.36 23.8629 176.182 24.6115C177.011 25.3601 177.43 26.3509 177.437 27.5838C177.43 28.7434 177.085 29.7525 176.402 30.6112C175.727 31.4698 174.802 32.1377 173.628 32.6147C172.454 33.0844 171.111 33.3192 169.599 33.3192C167.184 33.3192 165.28 32.8239 163.885 31.8331C162.498 30.835 161.706 29.4993 161.508 27.826L166.825 27.6939C166.942 28.3104 167.247 28.7801 167.738 29.103C168.23 29.4259 168.858 29.5874 169.621 29.5874C170.311 29.5874 170.872 29.4589 171.305 29.2021C171.738 28.9452 171.958 28.6039 171.966 28.1783C171.958 27.7966 171.79 27.4921 171.459 27.2646C171.129 27.0297 170.612 26.8462 169.907 26.7141L166.957 26.1527C165.261 25.8445 163.999 25.2757 163.17 24.4464C162.341 23.6097 161.93 22.5456 161.937 21.2539C161.93 20.1237 162.23 19.1586 162.84 18.3587C163.449 17.5514 164.315 16.9349 165.438 16.5092C166.56 16.0836 167.885 15.8707 169.412 15.8707C171.701 15.8707 173.507 16.3514 174.828 17.3129C176.149 18.2669 176.879 19.5806 177.019 21.2539ZM189.632 16.0909V20.054H178.964V16.0909H189.632ZM181.199 12.0398H186.582V27.6829C186.582 28.0131 186.634 28.281 186.736 28.4865C186.846 28.6847 187.004 28.8278 187.21 28.9158C187.415 28.9966 187.661 29.0369 187.947 29.0369C188.153 29.0369 188.369 29.0186 188.597 28.9819C188.832 28.9379 189.008 28.9012 189.125 28.8718L189.94 32.7578C189.683 32.8312 189.32 32.9229 188.85 33.033C188.388 33.1431 187.834 33.2128 187.188 33.2422C185.925 33.3009 184.843 33.1541 183.94 32.8018C183.045 32.4422 182.359 31.8845 181.882 31.1286C181.412 30.3726 181.184 29.4222 181.199 28.2773V12.0398Z" fill="black"/>
</svg>
